<?xml version="1.0" standalone="no"?>
<!DOCTYPE svg PUBLIC "-//W3C//DTD SVG 20010904//EN"
 "http://www.w3.org/TR/2001/REC-SVG-20010904/DTD/svg10.dtd">
<svg version="1.0" xmlns="http://www.w3.org/2000/svg"
 width="256.000000pt" height="256.000000pt" viewBox="0 0 256.000000 256.000000"
 preserveAspectRatio="xMidYMid meet">
<metadata>
Created by potrace 1.11, written by Peter Selinger 2001-2013
</metadata>
<g transform="translate(0.000000,256.000000) scale(0.100000,-0.100000)"
fill="#000000" stroke="none">
<path d="M4 2545 c-12 -29 3 -257 17 -265 10 -7 10 -14 1 -35 -18 -38 -16 -95
3 -95 14 0 14 -3 1 -22 -8 -13 -13 -43 -12 -68 1 -41 3 -45 29 -48 32 -4 32
-21 -2 -98 -14 -31 -21 -67 -21 -110 0 -62 1 -64 25 -64 14 0 25 -1 25 -3 0
-2 -10 -23 -22 -48 -16 -34 -21 -64 -22 -131 -1 -51 3 -89 9 -91 5 -2 29 -3
53 -2 l42 2 1 -51 c1 -28 2 -58 2 -67 0 -12 13 -15 66 -16 36 0 78 -1 93 -2
l27 -1 0 -132 1 -133 -52 0 c-53 0 -53 0 -75 -45 -89 -179 -154 -325 -147
-327 5 -2 9 -75 8 -163 l-1 -160 106 0 107 0 -1 -129 0 -129 25 -4 c14 -2 150
-3 302 -3 153 0 278 -4 278 -8 0 -5 6 -5 12 -1 18 12 148 11 148 0 0 -6 5 -5
12 2 7 7 17 8 30 1 10 -5 18 -6 18 -2 0 5 113 8 251 8 138 0 253 3 255 7 3 5
6 62 6 128 0 75 4 117 10 114 6 -4 6 2 0 13 -6 11 -9 28 -7 39 2 10 4 23 4 27
1 5 7 5 14 2 6 -4 5 0 -4 7 -15 12 -15 16 -3 32 14 20 10 36 -9 36 -9 0 -9 -2
0 -8 7 -4 9 -13 4 -21 -6 -9 -11 -4 -19 18 -10 29 -9 31 13 31 13 0 26 -6 28
-12 4 -10 6 -10 6 0 1 6 6 12 12 12 6 0 9 -7 5 -15 -3 -8 -1 -15 4 -15 6 0 10
-8 9 -17 0 -11 -3 -13 -6 -5 -2 6 -9 12 -14 12 -6 0 -5 -8 1 -20 14 -26 9 -44
-15 -52 -18 -5 -18 -6 3 -7 13 -1 20 -5 17 -11 -3 -5 -1 -10 5 -10 7 0 9 -12
5 -32 -12 -64 -12 -73 2 -86 7 -8 10 -18 7 -24 -4 -7 -2 -8 4 -4 7 4 12 3 12
-2 0 -5 11 -15 25 -22 13 -7 21 -18 18 -24 -3 -6 -3 -8 2 -4 4 4 23 1 41 -7
18 -7 50 -17 71 -21 50 -9 184 -11 203 -2 8 3 37 14 64 24 61 21 102 56 116
100 10 31 14 33 55 31 24 -1 41 1 38 6 -2 4 4 7 14 7 32 0 122 50 143 80 15
21 20 44 20 92 0 34 0 70 0 78 0 8 0 80 0 160 0 80 0 152 0 160 0 34 0 307 0
325 0 11 0 72 0 135 -1 101 -4 119 -23 147 -27 40 -94 74 -172 88 l-60 11 -5
380 c-6 421 -5 415 -72 450 -29 15 -86 17 -538 17 l-505 0 -22 26 c-20 25 -25
26 -150 29 -70 2 -195 7 -278 12 -82 5 -222 11 -310 15 -88 4 -164 11 -169 16
-6 5 -50 9 -98 9 -69 0 -90 -3 -94 -15z"/>
<path d="M1635 370 c3 -5 8 -10 11 -10 2 0 4 5 4 10 0 6 -5 10 -11 10 -5 0 -7
-4 -4 -10z"/>
<path d="M1633 335 c0 -8 4 -12 9 -9 4 3 8 9 8 15 0 5 -4 9 -8 9 -5 0 -9 -7
-9 -15z"/>
<path d="M1610 296 c0 -2 8 -10 18 -17 15 -13 16 -12 3 4 -13 16 -21 21 -21
13z"/>
<path d="M1640 260 c-9 -6 -10 -10 -3 -10 6 0 15 5 18 10 8 12 4 12 -15 0z"/>
</g>
</svg>
